<svg width="11" height="21" viewBox="0 0 11 21" fill="none" xmlns="http://www.w3.org/2000/svg">
<path d="M1.56403 11.3508C1.32722 11.3508 1.09042 11.2435 0.90097 11.0557C0.522078 10.6533 0.522078 9.95582 0.877289 9.52661L8.71562 0.325344C9.07083 -0.103869 9.68653 -0.103869 10.0654 0.298519C10.4443 0.700906 10.4443 1.39838 10.0891 1.82759L2.25077 11.0289C2.06133 11.2435 1.80084 11.3508 1.56403 11.3508Z" fill="white"/>
<path d="M9.40236 20.3905C9.16555 20.3905 8.90506 20.2832 8.71562 20.0686L0.877289 11.0283C0.522078 10.5991 0.522078 9.92842 0.90097 9.4992C1.27986 9.09681 1.87188 9.09681 2.25077 9.52603L10.0891 18.5663C10.4443 18.9956 10.4443 19.6662 10.0654 20.0954C9.87597 20.2832 9.63916 20.3905 9.40236 20.3905Z" fill="white"/>
</svg>
