<svg width="52" height="52" viewBox="0 0 52 52" fill="none" xmlns="http://www.w3.org/2000/svg">
<circle cx="26" cy="26" r="26" fill="#EDF2F7"/>
<path d="M20.35 28.2352C20.0136 28.2352 19.6772 28.1006 19.408 27.8651C18.8697 27.3605 18.8697 26.4858 19.3744 25.9475L30.5101 14.408C31.0148 13.8697 31.8895 13.8697 32.4278 14.3744C32.9661 14.879 32.9661 15.7537 32.4614 16.292L21.3257 27.8315C21.0565 28.1006 20.6864 28.2352 20.35 28.2352Z" fill="#363636"/>
<path d="M31.4858 39.5724C31.1494 39.5724 30.7793 39.4378 30.5101 39.1687L19.3744 27.8311C18.8697 27.2928 18.8697 26.4517 19.408 25.9134C19.9463 25.4088 20.7874 25.4088 21.3257 25.9471L32.4614 37.2847C32.9661 37.823 32.9661 38.6641 32.4278 39.2023C32.1586 39.4378 31.8222 39.5724 31.4858 39.5724Z" fill="#363636"/>
</svg>
