<svg width="202" height="204" viewBox="0 0 202 204" fill="none" xmlns="http://www.w3.org/2000/svg">
<path d="M179.469 43.9944L112 5.04145C105.193 1.11153 96.8068 1.11153 90 5.04145L22.5314 43.9944C15.7246 47.9244 11.5314 55.1872 11.5314 63.047V140.953C11.5314 148.813 15.7246 156.076 22.5314 160.006L90 198.959C96.8068 202.888 105.193 202.888 112 198.959L179.469 160.006C186.275 156.076 190.469 148.813 190.469 140.953V63.047C190.469 55.1872 186.275 47.9244 179.469 43.9944Z" fill="#0C1142" stroke="url(#paint0_linear_603_1914)" stroke-width="4"/>
<mask id="mask0_603_1914" style="mask-type:alpha" maskUnits="userSpaceOnUse" x="13" y="4" width="176" height="196">
<path d="M91 6.7735C97.188 3.20085 104.812 3.20085 111 6.7735L178.469 45.7265C184.657 49.2992 188.469 55.9017 188.469 63.047V140.953C188.469 148.098 184.657 154.701 178.469 158.274L111 197.226C104.812 200.799 97.188 200.799 91 197.226L23.5314 158.274C17.3434 154.701 13.5314 148.098 13.5314 140.953V63.047C13.5314 55.9017 17.3434 49.2992 23.5314 45.7265L91 6.7735Z" fill="#0C1142"/>
</mask>
<g mask="url(#mask0_603_1914)">
<path fill-rule="evenodd" clip-rule="evenodd" d="M74.8058 210.05L64.8328 210.676C62.3305 210.843 59.8571 210.062 57.9036 208.489C55.9501 206.917 54.6593 204.667 54.2875 202.187L35.7121 79.2007C35.5033 77.8268 35.5833 76.4245 35.9471 75.0833C36.3109 73.7421 36.9504 72.4916 37.8249 71.4115C38.6993 70.3315 39.7894 69.4457 41.0255 68.8107C42.2616 68.1758 43.6165 67.8056 45.0038 67.7239L54.9768 67.0977C57.4791 66.9313 59.9525 67.7119 61.906 69.2845C63.8595 70.8571 65.1503 73.1067 65.5221 75.5868L81.2818 179.93L86.5011 80.3395C86.7923 74.7842 91.5318 70.5167 97.0871 70.8079L106.068 71.2786C111.623 71.5697 115.891 76.3092 115.6 81.8645L111.078 168.138L134.487 75.7423C135.13 73.2151 136.696 71.0204 138.877 69.5907C141.058 68.1609 143.695 67.5998 146.269 68.018L155.186 69.4658C156.614 69.6948 157.979 70.2189 159.194 71.0048C160.408 71.7906 161.446 72.8209 162.24 74.03C163.034 75.239 163.568 76.6004 163.807 78.0271C164.046 79.4538 163.985 80.9147 163.628 82.3166L133.296 202.032C132.652 204.564 131.083 206.764 128.898 208.197C126.712 209.629 124.07 210.192 121.491 209.773L112.574 208.325C111.148 208.094 109.785 207.568 108.573 206.781C108.316 206.614 108.067 206.436 107.827 206.248C105.95 209.257 102.538 211.182 98.7465 210.984L89.7654 210.513C86.5599 210.345 83.7832 208.696 82.0636 206.264C82.0375 206.297 82.0112 206.33 81.9847 206.362C81.1103 207.442 80.0202 208.328 78.7841 208.963C77.548 209.598 76.1931 209.968 74.8058 210.05Z" fill="white"/>
</g>
<path d="M116.573 66.3575L116.146 66.2372L115.771 66.4723L110.738 69.6215L107.906 64.6361L113.862 60.8336L114.287 60.562L114.321 60.0584C114.37 59.3338 114.581 58.6295 114.939 57.9972C115.296 57.3648 115.79 56.8206 116.386 56.4045C116.981 55.9885 117.662 55.7111 118.378 55.5928C119.095 55.4746 119.829 55.5185 120.526 55.7212L121.588 56.0298L121.789 54.9429C122.119 53.1587 122.782 51.9498 123.682 51.3187C124.542 50.7155 125.847 50.4855 127.852 51.1654L129.173 51.6134V50.2183C129.173 48.5954 129.811 47.277 130.859 46.5802C131.887 45.8972 133.556 45.6518 135.966 46.6896L138.945 47.9729L137.205 45.2348C137.105 45.0766 137.045 44.7757 137.304 44.2522C137.56 43.735 138.067 43.1557 138.758 42.6685C140.172 41.671 141.952 41.3109 143.31 42.1246L143.798 42.4168L144.298 42.147L150.302 38.9102L152.934 43.1632C152.048 43.8081 151.17 44.532 150.323 45.2313L150.259 45.2837C149.119 46.2239 148.032 47.1169 146.961 47.8158L146.589 48.0584L146.52 48.4971C146.199 50.526 145.398 51.7057 144.323 52.3503C143.211 53.0177 141.612 53.2302 139.474 52.895L137.934 52.6535L138.357 54.1544C138.631 55.1255 138.18 56.2109 137.116 56.9658C136.069 57.7084 134.556 58.0108 133.052 57.403L131.917 56.9442L131.694 58.1482C131.362 59.9437 130.705 61.0912 129.774 61.6265C128.86 62.1519 127.357 62.2703 124.877 61.2259L123.675 60.7194L123.498 62.0122C123.155 64.5278 122.466 65.7975 121.548 66.3804C120.62 66.9698 119.118 67.0755 116.573 66.3575Z" fill="white" stroke="white" stroke-width="2"/>
<path d="M84.461 58.9892L84.5561 59.5481L85.0844 59.7536L90.32 61.7896L89.0958 65.7315C88.1946 65.5151 87.2557 65.3441 86.3513 65.1794L86.3222 65.1741C85.0609 64.9443 83.8657 64.7256 82.8013 64.413L82.3812 64.2897L82.0057 64.5146C80.5144 65.4078 79.3288 65.5192 78.3498 65.1813C77.33 64.8295 76.3192 63.9179 75.3624 62.3233L74.5642 60.993L73.6822 62.2693C73.2274 62.9274 72.3133 63.229 71.2527 62.9542C70.2146 62.6851 69.2121 61.8855 68.7987 60.6032L68.4252 59.4448L67.3613 60.0359C66.0154 60.7835 64.9426 60.9601 64.1273 60.6575C63.3302 60.3617 62.4346 59.4767 61.7519 57.2599L61.3674 56.0115L60.2627 56.7085C58.4123 57.8757 57.2309 58.0988 56.3933 57.8328C55.5452 57.5634 54.6608 56.6717 53.7313 54.5781L53.5465 54.162L53.1114 54.0281L48.3248 52.5553L49.9657 48.1711L55.8755 49.8928L56.3412 50.0285L56.7361 49.7468C57.2286 49.3953 57.7933 49.1581 58.389 49.0524C58.9848 48.9468 59.5966 48.9753 60.1799 49.1358C60.7632 49.2964 61.3034 49.5851 61.7611 49.9808C62.2189 50.3765 62.5826 50.8692 62.8258 51.4232L63.2684 52.4312L64.2294 51.8941C65.5545 51.1533 66.6699 50.9455 67.5328 51.1806C68.351 51.4034 69.2022 52.0986 69.8612 53.7783L70.3679 55.0696L71.4329 54.1808C72.4829 53.3046 73.6664 53.0162 74.6612 53.31C75.6329 53.597 76.7007 54.5237 77.3499 56.6662L78.2977 59.7938L79.2624 56.6713C79.2876 56.5896 79.3894 56.4114 79.8506 56.3038C80.3059 56.1976 80.9481 56.2142 81.6425 56.4021C83.0745 56.7896 84.2498 57.7466 84.461 58.9892Z" fill="white" stroke="white" stroke-width="2"/>
<defs>
<linearGradient id="paint0_linear_603_1914" x1="202.62" y1="114.255" x2="-8.76622" y2="110.796" gradientUnits="userSpaceOnUse">
<stop stop-color="#6DDBF5"/>
<stop offset="1" stop-color="#603DDE"/>
</linearGradient>
</defs>
</svg>
