<svg width="93" height="18" viewBox="0 0 93 18" fill="none" xmlns="http://www.w3.org/2000/svg">
<path d="M0.955811 12.2227C0.967529 15.5625 3.65112 17.4961 8.20972 17.4961C12.6746 17.4961 15.7214 15.2812 15.7214 11.7188C15.7214 9.28125 14.4089 8.01562 11.3738 7.13672L9.52222 6.59766C8.16284 6.19922 7.69409 5.73047 7.69409 5.05078C7.69409 4.25391 8.53784 3.66797 9.83862 3.66797C11.2449 3.66797 12.1941 4.33594 12.2292 5.34375H16.7644C16.741 1.99219 14.0808 0 9.72144 0C5.61987 0 2.64331 2.25 2.64331 5.69531C2.64331 8.00391 4.14331 9.52734 6.96753 10.3828L8.73706 10.9219C10.3308 11.4141 10.6472 11.7773 10.6472 12.3984C10.6472 13.2422 9.74487 13.8164 8.30347 13.8164C6.90894 13.8164 5.79565 13.1484 5.65503 12.2227H0.955811Z" fill="white"/>
<path d="M28.366 7.58203H28.4597L28.9988 17.2031H33.6394L41.5847 0.292969H36.4753L32.3738 10.8281H32.28L31.8816 0.292969H28.0378L23.28 10.8281H23.1863L23.4675 0.292969H18.3582L19.1316 17.2031H23.8308L28.366 7.58203Z" fill="white"/>
<path d="M49.7175 3.96094C51.4285 3.96094 52.5535 5.33203 52.5535 7.48828C52.5535 10.8398 50.6082 13.5352 48.3347 13.5352C46.6238 13.5352 45.5105 12.1406 45.5105 9.99609C45.5105 6.66797 47.4441 3.96094 49.7175 3.96094ZM48.1824 17.4961C53.3621 17.4961 57.5925 13.418 57.5925 7.19531C57.5925 3.10547 54.7917 0 49.8347 0C44.6433 0 40.4714 4.10156 40.4714 10.3008C40.4714 14.4023 43.3542 17.4961 48.1824 17.4961Z" fill="white"/>
<path d="M68.3035 3.96094C70.0144 3.96094 71.1394 5.33203 71.1394 7.48828C71.1394 10.8398 69.1941 13.5352 66.9207 13.5352C65.2097 13.5352 64.0964 12.1406 64.0964 9.99609C64.0964 6.66797 66.03 3.96094 68.3035 3.96094ZM66.7683 17.4961C71.948 17.4961 76.1785 13.418 76.1785 7.19531C76.1785 3.10547 73.3777 0 68.4207 0C63.2292 0 59.0574 4.10156 59.0574 10.3008C59.0574 14.4023 61.9402 17.4961 66.7683 17.4961Z" fill="white"/>
<path d="M79.9753 0.292969L76.4011 17.2031H81.3582L82.3425 12.5859H84.7449C89.5964 12.5859 92.6199 9.86719 92.6199 5.55469C92.6199 2.40234 90.3816 0.292969 86.3855 0.292969H79.9753ZM84.1472 4.04297H85.448C86.866 4.04297 87.6394 4.66406 87.6394 6C87.6394 7.65234 86.5144 8.90625 84.78 8.90625H83.1042L84.1472 4.04297Z" fill="white"/>
</svg>
